<svg width="410" height="330" viewBox="0 0 410 330" fill="none" xmlns="http://www.w3.org/2000/svg">
<path d="M362.643 323.913H39.1641V115.971C39.1641 51.922 91.0861 0 155.135 0H246.672C310.721 0 362.643 51.922 362.643 115.971V323.913Z" fill="#D4D8FF"/>
<path d="M176.473 117.639C176.473 99.6025 170.536 84.9805 131.614 84.9805C92.6919 84.9805 86.7549 99.6025 86.7549 117.639C86.7549 135.676 92.6919 150.298 131.614 150.298C139.537 150.298 146.074 149.683 151.491 148.566C158.99 155.336 168.105 162.644 171.169 161.257C174.348 159.818 172.757 148.065 170.838 138.361C175.342 132.722 176.473 125.506 176.473 117.639Z" fill="white"/>
<path d="M143.129 317.031C179.588 316.752 182.831 317.638 189.372 297.269C194.831 280.267 208.666 228.496 208.666 228.496C212.766 209.568 209.594 201.848 189.267 210.357C172.249 217.48 157.473 272.129 152.81 287.426C152.81 287.426 78.2998 296.533 73.0258 296.648C62.5458 296.877 42.3318 300.116 32.0218 305.412C21.7078 307.901 23.1558 311.322 23.1558 311.322C19.4128 312.504 17.4348 317.534 21.9658 317.14C26.4978 316.747 104.825 317.324 143.129 317.031Z" fill="#ED9D88"/>
<path d="M159.011 266.316C159.011 266.316 158.291 267.819 157.705 270.746C157.705 270.746 182.351 282.445 193.573 283.246C193.573 283.246 194.937 278.204 195.221 277.48C196.246 274.863 159.011 266.316 159.011 266.316Z" fill="black"/>
<path d="M154.849 267.394C161.684 238.379 183.192 204.657 194.182 200.056C214.509 191.547 216.288 210.583 212.188 229.511C206.008 258.924 201.201 278.495 201.201 278.495C201.201 278.495 165.951 272.887 154.849 267.394Z" fill="#7886FF"/>
<path d="M23.1559 311.822C22.9419 311.822 22.7439 311.684 22.6779 311.469C22.5969 311.205 22.7449 310.925 23.0089 310.844C23.6899 310.635 39.7779 305.737 48.7159 306.467C48.9909 306.49 49.1959 306.731 49.1739 307.006C49.1519 307.281 48.9199 307.489 48.6339 307.463C39.8769 306.74 23.4679 311.749 23.3019 311.8C23.2539 311.815 23.2039 311.822 23.1559 311.822Z" fill="black"/>
<path d="M30.5859 306.613C30.3679 306.613 30.1669 306.468 30.1049 306.248C30.0309 305.982 30.1859 305.706 30.4519 305.632C31.0779 305.457 45.8159 301.348 49.2969 301.248C49.5749 301.26 49.8029 301.458 49.8109 301.734C49.8189 302.01 49.6009 302.24 49.3249 302.248C45.9659 302.344 30.8729 306.553 30.7209 306.595C30.6759 306.607 30.6309 306.613 30.5859 306.613Z" fill="black"/>
<path d="M227.365 172.991L225.846 192.284L212.811 196.619C212.811 196.619 216.731 226.486 243.208 225.17C269.685 223.855 273.158 187.9 273.158 187.9H259.268L264.24 156.035L227.365 172.991Z" fill="#ED9D88"/>
<path d="M226.357 185.779C226.357 185.779 248.125 185.779 257.115 169.395L227.364 172.992L226.357 185.779Z" fill="black"/>
<path d="M319.315 282.362L309.785 316.466L169.853 316.293C169.853 316.293 179.659 212.926 192.68 203.279C205.701 193.633 219.719 194.801 220.587 193.485C220.587 193.485 213.393 209.843 236.398 206.335C259.403 202.827 265.344 187.898 265.344 187.898C265.344 187.898 287.047 188.336 300.068 191.844C313.09 195.353 319.315 282.362 319.315 282.362Z" fill="#7886FF"/>
<path d="M186.32 313.897C186.303 313.897 186.286 313.896 186.269 313.895C185.995 313.867 185.794 313.622 185.822 313.347C185.872 312.853 190.932 263.599 198.477 229.906C198.537 229.637 198.805 229.469 199.074 229.527C199.344 229.587 199.513 229.855 199.452 230.124C191.921 263.759 186.867 312.955 186.817 313.448C186.791 313.705 186.574 313.897 186.32 313.897Z" fill="black"/>
<path d="M298.6 135.214C298.476 128.26 293.561 122.584 287.221 121.553C288.719 117.998 289.546 114.066 289.472 109.921C289.201 94.682 277.199 82.538 262.667 82.797C248.134 83.056 236.574 95.62 236.845 110.859C237.116 126.098 249.117 138.242 263.65 137.983C266.505 137.932 269.239 137.391 271.797 136.464C271.876 137.6 272.072 138.701 272.392 139.745C266.055 140.97 261.307 146.835 261.431 153.816C261.57 161.592 267.693 167.789 275.108 167.656C282.523 167.524 288.422 161.113 288.284 153.337C288.259 151.924 288.031 150.565 287.638 149.284C293.977 148.061 298.724 142.195 298.6 135.214Z" fill="#101229"/>
<path d="M204.455 133.404C201.256 168.556 211.689 177.7 235.899 178.347C260.107 178.994 274.449 158.972 275.13 133.823C275.81 108.668 262.561 87.9046 238.351 87.2526C214.141 86.6006 206.736 108.343 204.455 133.404Z" fill="#ED9D88"/>
<path d="M250.542 121.849C251.705 121.719 252.542 120.671 252.412 119.508C252.282 118.345 251.234 117.508 250.071 117.638L244.055 118.31C242.892 118.44 242.055 119.488 242.185 120.651C242.315 121.814 243.363 122.651 244.526 122.521L250.542 121.849Z" fill="#101229"/>
<path d="M211.081 122.18C209.927 121.988 209.147 120.896 209.339 119.742C209.531 118.588 210.623 117.808 211.777 118L217.748 118.995C218.902 119.187 219.682 120.279 219.49 121.433C219.298 122.587 218.206 123.367 217.052 123.175L211.081 122.18Z" fill="#101229"/>
<path d="M228.831 147.097C228.826 147.097 228.822 147.097 228.817 147.097C225.513 147.008 222.898 144.248 222.986 140.944C223.029 139.344 223.693 137.856 224.855 136.755C226.017 135.653 227.543 135.066 229.139 135.114C229.415 135.122 229.633 135.351 229.625 135.628C229.618 135.904 229.398 136.12 229.111 136.114C227.764 136.065 226.51 136.564 225.542 137.481C224.574 138.398 224.02 139.638 223.985 140.972C223.949 142.305 224.435 143.573 225.352 144.541C226.269 145.509 227.509 146.062 228.843 146.098C229.119 146.106 229.337 146.335 229.329 146.612C229.323 146.881 229.1 147.097 228.831 147.097Z" fill="black"/>
<path d="M231.263 159.963C231.144 159.963 231.024 159.961 230.902 159.958C226.92 159.851 224.689 158.012 224.596 157.934C224.385 157.756 224.358 157.442 224.535 157.231C224.712 157.02 225.027 156.993 225.239 157.168C225.26 157.185 227.316 158.862 230.93 158.959C234.547 159.044 236.972 157.484 236.995 157.469C237.225 157.316 237.535 157.377 237.688 157.608C237.841 157.837 237.78 158.147 237.551 158.301C237.447 158.369 235.025 159.963 231.263 159.963Z" fill="black"/>
<path d="M244.382 134.356C244.323 136.558 244.917 138.36 247.119 138.42C249.321 138.479 250.011 136.711 250.07 134.509C250.129 132.307 249.536 130.505 247.333 130.445C245.131 130.386 244.441 132.154 244.382 134.356Z" fill="black"/>
<path d="M215.24 133.383C215.338 135.584 214.776 137.396 212.576 137.494C210.375 137.592 209.654 135.836 209.556 133.636C209.458 131.435 210.019 129.623 212.22 129.525C214.421 129.427 215.142 131.183 215.24 133.383Z" fill="black"/>
<path d="M267.752 133.922C265.966 140.371 269.746 147.046 276.195 148.832C282.643 150.618 289.319 146.838 291.104 140.39C292.89 133.942 289.11 127.266 282.662 125.48C276.213 123.693 269.538 127.473 267.752 133.922Z" fill="#ED9D88"/>
<path d="M274.565 137.528C274.521 137.528 274.476 137.522 274.431 137.51C274.165 137.436 274.009 137.161 274.082 136.895C275.063 133.354 278.743 131.272 282.28 132.252C282.546 132.326 282.702 132.601 282.629 132.867C282.555 133.134 282.278 133.288 282.014 133.216C279.001 132.382 275.88 134.154 275.046 137.161C274.985 137.383 274.784 137.528 274.565 137.528Z" fill="black"/>
<path d="M279.918 143.006C279.876 143.006 279.833 143.001 279.791 142.99C279.524 142.92 279.364 142.647 279.434 142.38C280.54 138.146 276.611 134.044 276.572 134.003C276.38 133.805 276.384 133.488 276.582 133.296C276.78 133.103 277.097 133.108 277.289 133.306C277.468 133.49 281.649 137.86 280.402 142.634C280.343 142.857 280.14 143.006 279.918 143.006Z" fill="black"/>
<path d="M252.786 117.088C256.385 116.065 259.286 113.828 261.262 111.147C265.675 121.121 272.305 133.693 277.188 132.256C285.165 129.909 284.732 113.577 282.423 107.504C279.815 100.646 272.638 94.2558 263.687 89.6958C266.082 86.4358 266.974 82.0458 265.643 77.7558C263.466 70.7448 256.282 66.7438 249.596 68.8198C245.584 70.0648 242.677 73.2208 241.452 77.0568C241.431 76.9848 241.42 76.9128 241.398 76.8408C239.116 69.4888 230.618 65.5928 222.418 68.1388C214.218 70.6848 209.421 78.7078 211.703 86.0598C211.871 86.6028 212.084 87.1208 212.318 87.6258C212.318 87.6258 196.787 88.9448 195.976 99.3438C195.165 109.743 208.631 110.907 208.631 110.907C208.631 110.907 217.461 123.572 235.108 116.002C235.108 116.002 244.312 119.495 252.786 117.088Z" fill="#101229"/>
<path d="M307.236 316.457C300.844 316.457 304.594 296.453 304.594 296.453H314.911C314.911 296.453 314.951 316.457 307.236 316.457Z" fill="black"/>
<path d="M290.304 232.46L289.801 190.273C319.786 192.366 327.937 210.379 330.653 234.444C334.55 268.981 330.713 296.451 330.713 296.451L282.074 279.612L290.304 232.46Z" fill="#7886FF"/>
<path d="M287.417 128.742C281.845 129.566 257.699 149.553 255.575 151.819C253.45 154.085 247.227 171.652 247.227 173.712C247.227 175.771 252.299 174.524 252.299 174.524L288.849 150.369C288.849 150.369 291.435 133.876 290.817 131.231C290.197 128.585 287.417 128.742 287.417 128.742Z" fill="#CF4192"/>
<path d="M310.919 259.92C305.736 245.019 278.38 175.526 278.38 175.526C278.38 175.526 289.705 155.396 290.91 153.012C293.111 148.656 295.035 144.529 294.134 140.769C292.76 135.036 283.807 131.231 283.807 131.231C279.92 127.776 276.624 135.877 276.624 135.877C270.089 135.229 270.173 140.541 270.173 140.541C268.445 139.245 259.363 138.036 259.569 149.762L263.857 147.404L268.708 148.712C268.708 148.712 252.25 167.105 252.25 175.312C252.25 182.912 273.172 295.708 294.134 311.24C294.134 311.24 296.988 312.9 298.408 312.992C303.422 314.535 311.982 315.573 319.315 308.527C333.576 294.82 330.554 255.344 310.919 259.92Z" fill="#ED9D88"/>
<path d="M255.433 195.914C255.197 195.914 254.988 195.747 254.942 195.507C253.032 185.411 251.749 177.295 251.749 175.31C251.749 167.008 267.658 149.134 268.335 148.377C268.519 148.171 268.835 148.154 269.041 148.338C269.247 148.522 269.264 148.838 269.08 149.044C268.917 149.227 252.748 167.388 252.748 175.31C252.748 176.863 253.742 183.788 255.923 195.322C255.974 195.593 255.796 195.855 255.525 195.906C255.495 195.911 255.464 195.914 255.433 195.914Z" fill="black"/>
<path d="M259.568 150.262C259.296 150.262 259.073 150.044 259.068 149.771C258.96 143.631 261.369 141.1 263.409 140.057C265.688 138.892 268.315 139.175 269.748 139.752C269.883 138.958 270.262 137.722 271.32 136.748C272.49 135.671 274.17 135.202 276.307 135.35C276.828 134.197 278.658 130.534 281.146 129.954C282.187 129.711 283.192 130.017 284.139 130.859C284.346 131.042 284.364 131.358 284.181 131.565C283.998 131.771 283.682 131.79 283.475 131.607C282.776 130.986 282.088 130.765 281.374 130.929C279.387 131.391 277.604 134.796 277.085 136.068C277.002 136.273 276.795 136.394 276.573 136.377C274.559 136.175 273.021 136.547 272.005 137.478C270.67 138.699 270.672 140.519 270.672 140.538C270.674 140.728 270.567 140.904 270.398 140.99C270.228 141.075 270.024 141.059 269.873 140.945C269.181 140.426 266.377 139.666 263.864 140.95C261.303 142.259 259.989 145.304 260.068 149.756C260.073 150.032 259.853 150.26 259.577 150.265C259.574 150.262 259.571 150.262 259.568 150.262Z" fill="black"/>
<path d="M275.603 144.333C275.513 144.333 275.422 144.308 275.339 144.258L270.02 140.952C269.786 140.806 269.714 140.498 269.859 140.263C270.005 140.029 270.313 139.957 270.548 140.102L275.867 143.408C276.101 143.554 276.173 143.862 276.028 144.097C275.934 144.25 275.77 144.333 275.603 144.333Z" fill="black"/>
<path d="M281.942 139.683C281.852 139.683 281.761 139.659 281.678 139.608L276.359 136.302C276.125 136.156 276.053 135.848 276.198 135.613C276.344 135.379 276.652 135.307 276.887 135.452L282.206 138.758C282.44 138.904 282.512 139.212 282.367 139.447C282.273 139.599 282.109 139.683 281.942 139.683Z" fill="black"/>
<path d="M310.919 259.919C317.978 268.104 316.668 313.396 307.237 316.456C323.185 316.837 329.775 306 330.713 296.452C331.65 286.903 330.49 252.333 310.919 259.919Z" fill="#7886FF"/>
<path d="M164.302 316.456H222.461C224.151 316.456 225.521 315.086 225.521 313.396C225.521 311.706 224.151 310.336 222.461 310.336H164.302C162.612 310.336 161.242 311.706 161.242 313.396C161.241 315.086 162.612 316.456 164.302 316.456Z" fill="black"/>
<path d="M26.8398 316.456H179.133C180.823 316.456 182.193 315.086 182.193 313.396C182.193 311.706 180.823 310.336 179.133 310.336H26.8398C25.1498 310.336 23.7798 311.706 23.7798 313.396C23.7798 315.086 25.1498 316.456 26.8398 316.456Z" fill="white"/>
<path d="M171.317 285.251H176.073C182.888 285.251 188.413 279.727 188.413 272.911V197.582C188.413 190.767 182.888 185.242 176.073 185.242H171.317C164.502 185.242 158.977 190.767 158.977 197.582V272.911C158.977 279.726 164.502 285.251 171.317 285.251Z" fill="black"/>
<path d="M36.1198 285.251H171.137C177.952 285.251 183.477 279.727 183.477 272.911V197.582C183.477 190.767 177.952 185.242 171.137 185.242H36.1198C29.3048 185.242 23.7798 190.767 23.7798 197.582V272.911C23.7798 279.726 29.3048 285.251 36.1198 285.251Z" fill="white"/>
<path d="M89.2818 316.453H115.196V285.249H89.2818V316.453Z" fill="white"/>
<path d="M89.7178 235.248C89.7178 242.93 95.9458 249.158 103.628 249.158C111.31 249.158 117.538 242.93 117.538 235.248C117.538 227.565 111.31 221.338 103.628 221.338C95.9458 221.337 89.7178 227.565 89.7178 235.248Z" fill="#D4D8FF"/>
<path d="M154.194 285.751H36.1198C29.0398 285.751 23.2798 279.991 23.2798 272.911V197.582C23.2798 190.502 29.0398 184.742 36.1198 184.742C36.3958 184.742 36.6198 184.966 36.6198 185.242C36.6198 185.518 36.3958 185.742 36.1198 185.742C29.5918 185.742 24.2798 191.053 24.2798 197.582V272.911C24.2798 279.44 29.5918 284.751 36.1198 284.751H154.194C154.47 284.751 154.694 284.975 154.694 285.251C154.694 285.527 154.47 285.751 154.194 285.751Z" fill="black"/>
<path d="M26.8408 316.956C24.8778 316.956 23.2798 315.359 23.2798 313.396C23.2798 311.433 24.8768 309.836 26.8408 309.836H125.032C125.308 309.836 125.532 310.06 125.532 310.336C125.532 310.612 125.308 310.836 125.032 310.836H26.8408C25.4288 310.836 24.2798 311.984 24.2798 313.396C24.2798 314.808 25.4278 315.956 26.8408 315.956C27.1168 315.956 27.3408 316.18 27.3408 316.456C27.3408 316.732 27.1168 316.956 26.8408 316.956Z" fill="black"/>
<path d="M263.487 316.763H227.515C227.515 310.108 235.568 304.713 245.501 304.713C255.434 304.713 263.487 310.108 263.487 316.763Z" fill="white"/>
<path d="M232.643 317.66C232.628 317.66 232.614 317.661 232.599 317.659C232.324 317.635 232.12 317.391 232.144 317.116C232.563 312.318 235.675 308.169 239.711 307.027C239.974 306.95 240.253 307.106 240.328 307.372C240.403 307.638 240.249 307.914 239.983 307.989C236.338 309.021 233.523 312.81 233.14 317.203C233.118 317.463 232.9 317.66 232.643 317.66Z" fill="black"/>
<path d="M345.397 262.105C337.598 264.458 330.308 263.158 329.113 259.2C327.919 255.242 333.272 250.125 341.071 247.772C348.87 245.419 356.16 246.719 357.355 250.678C358.55 254.635 353.196 259.751 345.397 262.105Z" fill="#38AB9B"/>
<path d="M370.086 275.093C369.81 275.093 369.586 274.869 369.586 274.593V267.313C369.577 261.509 367.62 256.99 364.076 254.589C359.507 251.493 352.556 251.767 343.419 255.402C343.164 255.504 342.872 255.379 342.77 255.122C342.668 254.866 342.794 254.575 343.05 254.473C352.514 250.709 359.777 250.47 364.636 253.761C368.463 256.353 370.576 261.165 370.586 267.312V274.593C370.586 274.869 370.363 275.093 370.086 275.093Z" fill="black"/>
<path d="M392.715 236.152C386.819 241.773 379.727 243.904 376.874 240.912C374.021 237.92 376.488 230.937 382.384 225.316C388.28 219.695 395.372 217.564 398.225 220.556C401.077 223.548 398.611 230.531 392.715 236.152Z" fill="#38AB9B"/>
<path d="M370.138 266.469H370.137C369.861 266.469 369.637 266.244 369.638 265.968C369.673 249.871 372.135 244.881 387.202 230.372C387.4 230.182 387.718 230.186 387.909 230.386C388.1 230.585 388.095 230.901 387.895 231.093C372.93 245.504 370.672 250.067 370.637 265.97C370.637 266.246 370.414 266.469 370.138 266.469Z" fill="black"/>
<path d="M392.232 270.52C392.17 270.609 392.108 270.697 392.044 270.785C388.653 275.484 388.653 281.755 392.044 286.454C394.11 289.317 395.287 292.615 395.287 296.126C395.287 307.118 383.746 316.029 369.51 316.029C355.274 316.029 343.732 307.118 343.732 296.126C343.732 292.616 344.909 289.318 346.975 286.454C350.366 281.755 350.366 275.484 346.975 270.785C346.912 270.697 346.849 270.609 346.787 270.52C344.027 266.555 347.053 261.113 351.884 261.113H387.135C391.966 261.114 394.991 266.555 392.232 270.52Z" fill="#FFBA3C"/>
<path d="M361.921 222.108C367.584 227.964 369.766 235.041 366.794 237.915C363.822 240.789 356.822 238.372 351.159 232.517C345.496 226.661 343.314 219.585 346.286 216.71C349.258 213.835 356.258 216.252 361.921 222.108Z" fill="#38AB9B"/>
<path d="M353.306 282.859C349.738 290.253 343.803 294.779 340.051 292.968C336.298 291.157 336.149 283.695 339.717 276.301C343.285 268.907 349.22 264.381 352.972 266.192C356.724 268.004 356.874 275.466 353.306 282.859Z" fill="#38AB9B"/>
<path d="M389.798 295.945C387.966 303.948 383.189 309.682 379.127 308.752C375.065 307.822 373.258 300.581 375.089 292.578C376.921 284.575 381.698 278.841 385.76 279.771C389.822 280.702 391.63 287.943 389.798 295.945Z" fill="#38AB9B"/>
<path d="M385.982 208.563C383.326 216.331 377.976 221.535 374.033 220.187C370.09 218.839 369.048 211.449 371.704 203.68C374.36 195.912 379.71 190.708 383.653 192.056C387.596 193.404 388.639 200.795 385.982 208.563Z" fill="#38AB9B"/>
<path d="M391.908 270.332C385.166 265.76 381.581 259.28 383.902 255.858C386.222 252.436 393.569 253.368 400.311 257.94C407.053 262.512 410.638 268.992 408.318 272.414C405.997 275.836 398.65 274.904 391.908 270.332Z" fill="#38AB9B"/>
<path d="M396.109 264.635C396.003 264.635 395.897 264.601 395.806 264.532C385.853 256.926 379.905 254.006 375.92 254.762C373.945 255.138 372.33 256.469 370.837 258.949C370.694 259.185 370.387 259.261 370.151 259.119C369.914 258.977 369.838 258.669 369.981 258.433C371.631 255.691 373.459 254.213 375.733 253.779C380.029 252.963 386.211 255.939 396.414 263.736C396.633 263.904 396.675 264.218 396.508 264.437C396.408 264.567 396.26 264.635 396.109 264.635Z" fill="black"/>
<path d="M382.443 294.761C382.361 294.761 382.278 294.741 382.202 294.699C381.96 294.566 381.872 294.261 382.005 294.02C390.317 278.942 384.322 265.357 377.653 260.924C374.756 258.997 372.072 259.051 370.477 261.068C370.306 261.284 369.993 261.322 369.774 261.15C369.558 260.979 369.521 260.664 369.692 260.447C371.616 258.016 374.879 257.879 378.206 260.091C385.184 264.73 391.495 278.875 382.88 294.502C382.79 294.668 382.619 294.761 382.443 294.761Z" fill="black"/>
<path d="M347.13 278.043C347.064 278.043 346.998 278.031 346.935 278.004C346.681 277.896 346.562 277.602 346.67 277.348C350.688 267.886 356.136 261.605 362.01 259.663C364.666 258.784 367.31 258.88 369.557 259.917C369.17 250.143 367.159 237.856 356.2 227.678C355.998 227.49 355.986 227.174 356.174 226.971C356.361 226.768 356.678 226.756 356.881 226.944C368.433 237.672 370.274 250.641 370.587 260.741C370.592 260.923 370.499 261.095 370.342 261.188C370.184 261.28 369.99 261.281 369.834 261.189C367.652 259.909 365.055 259.708 362.324 260.611C359.082 261.683 352.858 265.332 347.591 277.736C347.509 277.929 347.324 278.043 347.13 278.043Z" fill="black"/>
<path d="M370.086 261.259C369.81 261.259 369.586 261.035 369.586 260.759V260.627C369.585 234.587 372.721 215.137 378.417 205.86C378.562 205.624 378.87 205.551 379.105 205.695C379.34 205.84 379.414 206.148 379.269 206.383C373.668 215.504 370.584 234.768 370.585 260.626V260.758C370.586 261.035 370.363 261.259 370.086 261.259Z" fill="black"/>
<path d="M400.618 316.455H0V330.003H400.618V316.455Z" fill="#5459BF"/>
<path d="M320.144 308.511C324.256 308.511 332.933 306.058 333.447 300.852H360.933C360.933 300.852 357.311 308.511 351.991 308.511C346.67 308.511 320.144 308.511 320.144 308.511Z" fill="#FF6145"/>
<path d="M333.797 308.51H320.144V316.169H333.797V308.51Z" fill="#FF6145"/>
<path d="M361.103 308.51H333.797V316.169H361.103V308.51Z" fill="#FF6145"/>
<path d="M353.841 312H343.432C343.156 312 342.932 311.776 342.932 311.5C342.932 311.224 343.156 311 343.432 311H353.841C354.117 311 354.341 311.224 354.341 311.5C354.341 311.776 354.117 312 353.841 312Z" fill="black"/>
<path d="M351.008 314.004H333.797C333.521 314.004 333.297 313.78 333.297 313.504C333.297 313.228 333.521 313.004 333.797 313.004H351.008C351.284 313.004 351.508 313.228 351.508 313.504C351.508 313.78 351.284 314.004 351.008 314.004Z" fill="black"/>
<path d="M331.212 314.004H326.317C326.041 314.004 325.817 313.78 325.817 313.504C325.817 313.228 326.041 313.004 326.317 313.004H331.212C331.488 313.004 331.712 313.228 331.712 313.504C331.712 313.78 331.489 314.004 331.212 314.004Z" fill="black"/>
<path d="M325.044 312H320.149C319.873 312 319.649 311.776 319.649 311.5C319.649 311.224 319.873 311 320.149 311H325.044C325.32 311 325.544 311.224 325.544 311.5C325.544 311.776 325.32 312 325.044 312Z" fill="black"/>
<path d="M361.103 309.01H320.145C319.869 309.01 319.645 308.786 319.645 308.51C319.645 308.234 319.869 308.01 320.145 308.01H361.103C361.379 308.01 361.603 308.234 361.603 308.51C361.603 308.787 361.379 309.01 361.103 309.01Z" fill="black"/>
<path d="M333.797 316.669C333.521 316.669 333.297 316.445 333.297 316.169V308.51C333.297 308.234 333.521 308.01 333.797 308.01C334.073 308.01 334.297 308.234 334.297 308.51V316.169C334.297 316.445 334.073 316.669 333.797 316.669Z" fill="black"/>
</svg>
