<svg width="454" height="386" viewBox="0 0 454 386" fill="none" xmlns="http://www.w3.org/2000/svg">
<g clip-path="url(#clip0_317_22108)">
<path d="M-40.949 324.258H454V324.506H-40.949V324.258Z" fill="#EBEBEB"/>
<path d="M219.381 280.045H410.529C413.644 280.045 416.179 277.506 416.179 274.386V5.28974C416.179 2.16982 413.644 -0.369141 410.529 -0.369141H219.381C216.266 -0.369141 213.731 2.16982 213.731 5.28974V274.386C213.731 277.506 216.266 280.045 219.381 280.045ZM410.529 -0.120301C413.508 -0.120301 415.932 2.30664 415.932 5.29074V274.387C415.932 277.371 413.508 279.798 410.529 279.798H219.381C216.402 279.798 213.979 277.371 213.979 274.387V5.28974C213.979 2.30664 216.402 -0.121292 219.381 -0.121292L410.529 -0.120301Z" fill="#EBEBEB"/>
<path d="M5.26924 280.045H196.417C199.532 280.045 202.066 277.506 202.066 274.386V5.28974C202.066 2.16982 199.531 -0.369141 196.417 -0.369141H5.26924C2.15305 -0.369141 -0.381104 2.16982 -0.381104 5.28974V274.386C-0.38208 277.506 2.15305 280.045 5.26924 280.045ZM196.417 -0.120301C199.395 -0.120301 201.818 2.30664 201.818 5.29074V274.387C201.818 277.371 199.395 279.798 196.417 279.798H5.26924C2.28966 279.798 -0.133621 277.371 -0.133621 274.387V5.28974C-0.133621 2.30664 2.28966 -0.121292 5.26924 -0.121292L196.417 -0.120301Z" fill="#EBEBEB"/>
<path d="M8.64403 340.215H34.3784V340.463H8.64403V340.215Z" fill="#EBEBEB"/>
<path d="M101.569 342.902H146.142V343.15H101.569V342.902Z" fill="#EBEBEB"/>
<path d="M35.3695 331.008H95.5474V331.256H35.3695V331.008Z" fill="#EBEBEB"/>
<path d="M383.031 332.674H402.071V332.922H383.031V332.674Z" fill="#EBEBEB"/>
<path d="M319.484 332.674H374.218V332.922H319.484V332.674Z" fill="#EBEBEB"/>
<path d="M212.332 336.857H286.047V337.105H212.332V336.857Z" fill="#EBEBEB"/>
<path d="M178.363 29.8105H377.287V172.829H178.363V29.8105Z" fill="#FAFAFA"/>
<path d="M323.947 172.83L289.832 29.8105H251.862L285.977 172.83H323.947Z" fill="white"/>
<path d="M249.783 172.83L215.668 29.8105H201.819L235.934 172.83H249.783Z" fill="white"/>
<path d="M337.05 172.83L302.935 29.8105H297.735L331.85 172.83H337.05Z" fill="white"/>
<path d="M168.877 24.8926H386.77C387.256 24.8926 387.654 25.2911 387.654 25.7779C387.654 26.2647 387.256 26.6632 386.77 26.6632H168.877C168.391 26.6632 167.993 26.2647 167.993 25.7779C167.993 25.2911 168.391 24.8926 168.877 24.8926Z" fill="#E0E0E0"/>
<path d="M281.188 173.137H272.7V29.5034H281.188V173.137Z" fill="#F0F0F0"/>
<path d="M272.699 173.137H271.751V29.5034H272.699V173.137Z" fill="#E0E0E0"/>
<path d="M378.66 100.139V102.5L176.987 102.5V100.139L378.66 100.139Z" fill="#F0F0F0"/>
<path d="M176.987 171.846V30.7951V28.4336H179.344H376.303H378.66V30.7951V171.847V174.207H376.303H179.344H176.987V171.846ZM376.303 171.846V30.7951H179.344V171.847H376.303V171.846Z" fill="#F0F0F0"/>
<path d="M176.989 174.207H175.81L175.81 28.4342H176.989L176.989 174.207Z" fill="#E0E0E0"/>
<path opacity="0.5" d="M212.077 22.7285V260.267H162.357L171.475 22.7285H212.077Z" fill="#EBEBEB"/>
<path opacity="0.5" d="M246.582 22.7285V260.267H196.862L205.98 22.7285H246.582Z" fill="#EBEBEB"/>
<path opacity="0.5" d="M361.521 22.7285V260.267H392.111L386.502 22.7285H361.521Z" fill="#EBEBEB"/>
<path opacity="0.5" d="M340.293 22.7285V260.267H370.882L365.272 22.7285H340.293Z" fill="#EBEBEB"/>
<path d="M267.721 324.254H245.771L245.771 173.302H267.721V324.254Z" fill="#E6E6E6"/>
<path d="M259.994 324.26H267.721V295.572H251.893L259.994 324.26Z" fill="#F0F0F0"/>
<path d="M35.6038 324.254H13.6538L13.6538 173.302H35.6038L35.6038 324.254Z" fill="#E6E6E6"/>
<path d="M267.72 316.43L28.8608 316.43L28.8608 173.308L267.72 173.308V316.43Z" fill="#F0F0F0"/>
<path d="M36.5876 324.26H28.8605V295.572H44.689L36.5876 324.26Z" fill="#F0F0F0"/>
<path d="M107.609 185.159L107.609 303.553H36.803L36.803 185.159H107.609Z" fill="#E6E6E6"/>
<path d="M79.2081 189.321H65.2C59.1151 189.321 53.2985 187.131 49.1132 183.266H95.2949C91.1096 187.131 85.293 189.321 79.2081 189.321Z" fill="#F0F0F0"/>
<path d="M183.694 185.159V303.553H112.889L112.889 185.159H183.694Z" fill="#E6E6E6"/>
<path d="M156.009 189.321H142.001C135.916 189.321 130.099 187.131 125.914 183.266H172.096C167.91 187.131 162.094 189.321 156.009 189.321Z" fill="#F0F0F0"/>
<path d="M259.779 185.159V303.553H188.973V185.159H259.779Z" fill="#E6E6E6"/>
<path d="M232.093 189.321H218.085C212 189.321 206.184 187.131 201.998 183.266H248.18C243.995 187.131 238.178 189.321 232.093 189.321Z" fill="#F0F0F0"/>
<path d="M22.3899 145.91H95.1494C95.1494 145.91 94.4872 164.688 73.628 170.886V173.304H43.9113V170.886C23.0512 164.689 22.3899 145.91 22.3899 145.91Z" fill="#E6E6E6"/>
<path d="M42.1081 26.877H137.272V128.932H42.1081V26.877Z" fill="#F0F0F0"/>
<path d="M42.1078 128.93H38.96L38.96 26.8745H42.1078L42.1078 128.93Z" fill="#E0E0E0"/>
<path d="M58.2039 35.6309H121.178V120.18H58.2039V35.6309Z" fill="white"/>
<path d="M206.526 369.033C100.526 369.033 14.5959 364.007 14.5959 357.808C14.5959 351.608 100.526 346.582 206.526 346.582C312.526 346.582 398.457 351.608 398.457 357.808C398.457 364.007 312.526 369.033 206.526 369.033Z" fill="#F5F5F5"/>
<path d="M89.8705 353.933L97.9233 353.806L98.4668 335.074L90.414 335.201L89.8705 353.933Z" fill="#FF8B7B"/>
<path d="M98.197 348.475L89.3988 348.613C89.0692 348.618 88.798 348.852 88.7455 349.175L87.5774 356.376C87.4567 357.123 88.0615 357.819 88.8217 357.794C91.9924 357.69 96.5677 357.431 100.556 357.369C105.22 357.295 101.544 357.487 107.013 357.402C110.32 357.35 111.041 353.984 109.638 353.703C103.254 352.42 102.932 350.989 100.175 349.073C99.5918 348.668 98.8929 348.464 98.197 348.475Z" fill="#407BFF"/>
<path d="M121.041 111.86C121.733 114.601 122.532 117.093 123.362 119.677C124.178 122.242 125.126 124.765 126.099 127.288C128.085 132.319 130.335 137.289 133.155 142.145C133.492 142.753 133.879 143.356 134.257 143.958L134.825 144.86L135.109 145.31C135.199 145.455 135.361 145.673 135.485 145.85C136.537 147.353 137.775 148.664 139.104 149.734C141.76 151.893 144.638 153.266 147.478 154.222C150.325 155.165 153.163 155.717 155.976 156.003C157.381 156.157 158.784 156.22 160.182 156.243C161.602 156.256 162.929 156.208 164.449 156.067L164.601 150.006C159.935 148.979 155.038 147.532 151.105 145.451C149.141 144.403 147.412 143.181 146.167 141.864C145.551 141.196 145.066 140.518 144.696 139.835L144.539 139.556L144.333 139.159L143.92 138.368C143.645 137.841 143.364 137.322 143.112 136.765C141.005 132.416 139.175 127.753 137.505 123.009C136.649 120.644 135.868 118.241 135.07 115.843C134.285 113.463 133.539 110.968 132.843 108.678L121.041 111.86Z" fill="#FF8B7B"/>
<path d="M162.698 150.065L171.845 149.096L171.406 158.295C171.406 158.295 164.482 159.986 161.586 154.693L162.698 150.065Z" fill="#FF8B7B"/>
<path d="M179.373 153.157L177.679 157.092C177.397 157.748 176.764 158.175 176.05 158.191L171.404 158.295L171.844 149.096L178.065 150.574C179.204 150.845 179.833 152.089 179.373 153.157Z" fill="#FF8B7B"/>
<path opacity="0.2" d="M98.4648 335.08L98.1867 344.735L90.1299 344.862L90.4091 335.207L98.4648 335.08Z" fill="black"/>
<path d="M129.218 101.629C133.543 107.075 137.481 117.461 139.098 123.413C134.297 131.416 124.89 130.018 124.89 130.018C124.89 130.018 117.11 123.852 114.568 116.475C112.028 109.098 121.573 92.0009 129.218 101.629Z" fill="#407BFF"/>
<path d="M79.2468 102.735C77.3373 116.67 80.21 134.801 78.0421 161.226C78.0421 161.226 121.141 163.962 121.142 163.959C128.977 130.443 129.819 116.362 130.652 107.122C130.983 103.454 128.864 99.9691 125.438 98.5484C115.273 94.334 97.8529 93.7074 85.891 95.827C82.3967 96.4446 79.7289 99.2136 79.2468 102.735Z" fill="#407BFF"/>
<path d="M110.691 112.059C114.734 112.059 118.131 114.097 120.154 117.284H100.138C102.83 114.097 106.648 112.059 110.691 112.059Z" fill="white"/>
<path d="M99.5364 118.045H120.601C121.088 118.945 121.472 119.927 121.738 120.964H97.7912C98.2743 119.927 98.8613 118.946 99.5364 118.045Z" fill="white"/>
<path d="M97.3639 121.961H121.957C122.109 122.821 122.189 123.718 122.181 124.642H96.5799C96.765 123.717 97.0313 122.82 97.3639 121.961Z" fill="white"/>
<path d="M112.24 139.364H103.448C102.419 138.938 101.476 138.363 100.63 137.656H115.414C114.422 138.364 113.358 138.938 112.24 139.364Z" fill="white"/>
<path d="M117.677 135.686H98.7768C98.3283 135.084 97.9343 134.428 97.5988 133.732H119.263C118.783 134.428 118.251 135.084 117.677 135.686Z" fill="white"/>
<path d="M120.314 132.002H96.9121C96.6914 131.298 96.5251 130.566 96.4172 129.807H121.268C121.001 130.567 120.683 131.299 120.314 132.002Z" fill="white"/>
<path d="M96.3843 125.883H122.117C122.112 125.963 122.103 126.047 122.095 126.128C122.018 126.871 121.889 127.607 121.712 128.319H96.2804C96.2516 127.607 96.2764 126.871 96.3546 126.128C96.3635 126.047 96.3724 125.963 96.3843 125.883Z" fill="white"/>
<path d="M99.9455 75.1582L111.588 85.4548C109.908 89.8219 109.238 94.5311 115.87 96.616C116.231 96.729 116.542 96.9719 116.732 97.3C118.299 100.016 118.627 104.248 111.32 103.583C104.356 102.951 100.162 99.7448 97.0134 96.6596C96.462 96.1193 96.3977 95.228 96.9124 94.6728C100.874 90.3979 100.616 80.6743 99.9455 75.1582Z" fill="#FF8B7B"/>
<path opacity="0.2" d="M104.691 79.3633L111.582 85.4534C111.17 86.5132 110.825 87.5929 110.636 88.6507C107.864 88.1233 104.275 85.153 104.231 82.5199C104.21 81.2063 104.393 79.9561 104.691 79.3633Z" fill="black"/>
<path d="M121.764 60.7607C124.315 64.2861 122.632 72.469 120.73 73.7539C116.018 71.5262 116.889 58.7501 121.764 60.7607Z" fill="#263238"/>
<path d="M99.7366 66.1572C99.7782 74.1618 99.3951 78.8441 103.197 83.2023C108.917 89.7564 118.978 86.7554 121.332 78.9234C123.451 71.8736 123.028 59.9689 115.391 56.2809C107.866 52.6475 99.695 58.1527 99.7366 66.1572Z" fill="#FF8B7B"/>
<path d="M100.266 74.0778C99.1033 71.404 105.415 73.0001 105.415 73.0001C105.415 73.0001 106.42 64.4354 103.698 61.0835C106.439 62.7183 113.701 62.6767 115.209 61.0835C118.265 62.6341 122.324 63.0951 124.919 61.2927C127.513 59.4904 127.389 55.2987 125.714 53.2862C123.58 55.2561 120.565 52.5317 121.905 51.1904C117.648 48.6336 110.437 50.0166 109.056 51.4838C110.269 49.5556 108.344 48.2559 108.344 48.2559C108.344 48.2559 107.508 51.4997 104.954 51.3579C100.434 51.1061 95.1486 52.6577 97.169 56.9326C93.9459 57.2676 92.3977 60.9566 93.3599 63.8495C94.3221 66.7414 91.4345 67.2867 91.0999 66.4063C90.0121 68.4605 90.8911 69.6759 92.7739 70.4304C87.8353 76.1617 98.3826 77.9045 100.337 81.6361C100.337 81.6361 101.69 77.3474 100.266 74.0778Z" fill="#263238"/>
<path d="M95.5165 73.7162C96.4104 75.6891 98.1289 77.076 99.8018 77.6887C102.318 78.6117 103.764 76.4257 103.223 73.9522C102.735 71.7265 100.838 68.5639 98.2368 68.7037C95.6739 68.8435 94.4949 71.4608 95.5165 73.7162Z" fill="#FF8B7B"/>
<path d="M89.9157 249.841C92.5082 209.232 87.4726 161.82 87.4726 161.82L121.113 163.957C119.126 179.28 113.203 228.539 110.753 252.616C108.152 278.187 101.139 340.451 101.139 340.451L87.4765 340.659C87.4765 340.659 86.2382 281.889 89.9157 249.841Z" fill="#263238"/>
<path opacity="0.2" d="M90.1669 245.457C90.1976 244.924 90.2174 244.391 90.2382 243.857C91.0766 225.558 90.5243 206.433 89.7017 191.262L91.7755 192.579C100.626 205.718 94.9432 230.436 90.0412 247.901C90.0867 247.086 90.1323 246.272 90.1669 245.457Z" fill="black"/>
<path d="M102.44 337.645L101.354 343.215L87.1614 343.471L86.6041 338.208L102.44 337.645Z" fill="#263238"/>
<path d="M111.242 69.432C111.205 70.0813 111.52 70.6296 111.945 70.6583C112.37 70.6861 112.744 70.1825 112.781 69.5341C112.817 68.8847 112.503 68.3365 112.077 68.3077C111.652 68.28 111.278 68.7836 111.242 69.432Z" fill="#263238"/>
<path d="M120.209 70.141C120.172 70.7904 120.487 71.3386 120.912 71.3674C121.336 71.3952 121.71 70.8915 121.747 70.2432C121.784 69.5938 121.469 69.0455 121.044 69.0168C120.62 68.988 120.245 69.4917 120.209 70.141Z" fill="#263238"/>
<path d="M116.717 69.8359C116.717 69.8359 117.984 73.6776 119.509 75.592C118.299 76.5883 116.37 75.9697 116.37 75.9697L116.717 69.8359Z" fill="#FF5652"/>
<path d="M113.533 77.5286C111.08 77.0329 110.028 75.2435 109.981 75.1592C109.928 75.067 109.96 74.951 110.051 74.8994C110.142 74.8479 110.259 74.8806 110.312 74.9718C110.324 74.9926 111.553 77.0716 114.399 77.259C114.504 77.2669 114.585 77.3571 114.579 77.4622C114.573 77.5673 114.483 77.6476 114.377 77.6407C114.079 77.6198 113.798 77.5812 113.533 77.5286Z" fill="#263238"/>
<path d="M109.192 65.4344C109.13 65.4215 109.069 65.3938 109.017 65.3491C108.856 65.2113 108.836 64.9694 108.973 64.8098C110.342 63.2117 112.097 63.4308 112.171 63.4417C112.381 63.4705 112.528 63.6628 112.502 63.872C112.476 64.0802 112.286 64.2259 112.077 64.1991C112.019 64.1922 110.649 64.0356 109.558 65.3105C109.463 65.4185 109.323 65.4612 109.192 65.4344Z" fill="#263238"/>
<path d="M122.393 66.8231C122.269 66.8122 122.153 66.7418 122.088 66.6258C121.264 65.1456 119.893 65.0078 119.836 65.0029C119.626 64.984 119.468 64.7996 119.484 64.5904C119.499 64.3813 119.68 64.2246 119.889 64.2415C119.966 64.2494 121.724 64.4051 122.755 66.26C122.858 66.4453 122.792 66.6773 122.608 66.7785C122.54 66.8151 122.465 66.83 122.393 66.8231Z" fill="#263238"/>
<path d="M45.3335 354.52L53.4091 354.394L57.1836 335.662L49.109 335.789L45.3335 354.52Z" fill="#FF8B7B"/>
<path d="M46.514 348.673L55.2934 348.59C55.6221 348.587 55.822 348.815 55.7735 349.138L54.6985 356.347C54.5866 357.094 53.763 357.809 53.0087 357.803C49.8618 357.778 48.9294 357.544 44.949 357.582C40.2945 357.625 42.402 357.764 36.9437 357.816C33.6434 357.848 33.97 354.498 35.4648 354.165C40.1955 353.109 41.8318 351.287 44.3442 349.324C45.0015 348.811 45.8201 348.68 46.514 348.673Z" fill="#407BFF"/>
<path opacity="0.2" d="M57.1826 335.666L55.2385 345.321L47.1599 345.448L49.1041 335.793L57.1826 335.666Z" fill="black"/>
<path d="M61.7242 249.255C67.3497 212.503 72.224 175.746 78.0199 161.227L106.521 163.036C106.521 163.036 90.4728 226.002 82.2685 251.49C78.302 278.281 58.6297 341.122 58.6297 341.122L45.8185 340.561C45.8185 340.561 56.0986 286.006 61.7242 249.255Z" fill="#263238"/>
<path d="M60.6567 338.866L58.6314 344.337L44.4353 343.877L44.7699 338.629L60.6567 338.866Z" fill="#263238"/>
<path d="M77.5268 105.621C77.0725 106.346 76.7349 106.907 76.3677 107.536C76.0093 108.151 75.6807 108.773 75.3481 109.391C74.6868 110.63 74.0622 111.879 73.4524 113.136C72.2626 115.663 71.1875 118.249 70.256 120.905C69.2978 123.548 68.5148 126.28 67.8783 129.069L67.419 131.167L67.0616 133.307C66.933 134.014 66.8567 134.742 66.7775 135.469L66.6577 136.557L66.5983 137.1L66.5835 137.236L66.5528 137.649C66.539 137.937 66.5291 138.25 66.5508 138.501C66.6112 139.608 66.8696 140.431 67.1359 141.131C67.412 141.846 67.71 142.363 68.0129 142.871C68.6118 143.827 69.2216 144.539 69.8155 145.18C71.0054 146.444 72.1675 147.418 73.3307 148.329C75.654 150.131 78.003 151.591 80.3639 152.984C85.1154 155.719 89.9025 158.04 94.9609 160.029L97.8267 154.688C93.6879 151.625 89.4581 148.551 85.5222 145.394C83.5533 143.826 81.6478 142.198 79.9857 140.581C79.1612 139.78 78.4019 138.954 77.8753 138.231C77.6149 137.877 77.4229 137.542 77.3497 137.371C77.2744 137.236 77.4328 137.183 77.5427 138.053C77.5427 138.14 77.5575 138.289 77.5486 138.412L77.5337 138.581L77.5615 138.473L77.6496 138.043L77.8238 137.182C77.9376 136.609 78.0455 136.037 78.2079 135.463L78.6405 133.742L79.1433 132.021C79.8462 129.732 80.65 127.448 81.5735 125.186C82.5001 122.93 83.487 120.68 84.562 118.47C85.0966 117.363 85.642 116.261 86.2152 115.181L87.0813 113.578L87.9019 112.089L77.5268 105.621Z" fill="#FF8B7B"/>
<path d="M94.9764 153.543L103.108 154.371L99.5972 163.452C99.5972 163.452 92.3086 161.809 92.4828 157.806L94.9764 153.543Z" fill="#FF8B7B"/>
<path d="M108.633 160.908L106.863 163.873C106.158 165.053 104.694 165.532 103.403 165.006L99.5957 163.452L103.107 154.371L107.587 156.98C108.969 157.785 109.441 159.557 108.633 160.908Z" fill="#FF8B7B"/>
<path d="M100.13 109.96C97.7705 116.393 89.3485 124.854 85.1147 129.217C75.7146 129.1 69.4129 119.812 69.4129 119.812C69.4129 119.812 73.6922 103.511 82.0509 97.6224C88.3348 93.1958 104.303 98.585 100.13 109.96Z" fill="#407BFF"/>
<path d="M117.434 245.068H312.685V263.235H117.434V245.068Z" fill="#263238"/>
<path opacity="0.2" d="M117.433 245.068H172.855V263.235H117.433V245.068Z" fill="black"/>
<path d="M300.998 263.234H312.685V361.314H300.998V263.234Z" fill="#263238"/>
<path opacity="0.2" d="M300.998 268.321L312.685 265.777V263.234H300.998V268.321Z" fill="black"/>
<path d="M117.433 263.234H129.12V361.314H117.433V263.234Z" fill="#263238"/>
<path opacity="0.2" d="M117.433 263.234H129.12V361.314H117.433V263.234Z" fill="black"/>
<path d="M161.168 263.234H172.855V361.314H161.168V263.234Z" fill="#263238"/>
<path opacity="0.2" d="M161.168 268.321L172.855 265.777V263.234H161.168V268.321Z" fill="black"/>
<path d="M264.407 263.234H276.094V361.314H264.407V263.234Z" fill="#263238"/>
<path opacity="0.2" d="M264.407 263.234H276.094V361.314H264.407V263.234Z" fill="black"/>
<path d="M137.272 153.859H283.65L296.646 210.865H150.269L137.272 153.859Z" fill="#263238"/>
<path d="M137.272 153.859H133.926L146.924 210.865H150.269L137.272 153.859Z" fill="black"/>
<path d="M116.242 245.066H327.223C333.756 245.066 339.102 239.713 339.102 233.17V188.557C339.102 182.014 333.756 176.66 327.223 176.66H116.242C109.709 176.66 104.363 182.014 104.363 188.557V233.17C104.363 239.713 109.709 245.066 116.242 245.066Z" fill="#407BFF"/>
<path opacity="0.2" d="M116.241 245.066H143.211C149.744 245.066 155.09 239.713 155.09 233.17V188.557C155.09 182.014 149.744 176.66 143.211 176.66H116.241C109.708 176.66 104.363 182.014 104.363 188.557V233.17C104.363 239.713 109.708 245.066 116.241 245.066Z" fill="black"/>
<path opacity="0.2" d="M163.763 194.34H330.429C331.509 194.34 332.392 193.456 332.392 192.374C332.392 191.293 331.509 190.408 330.429 190.408H163.763C162.683 190.408 161.8 191.293 161.8 192.374C161.8 193.456 162.683 194.34 163.763 194.34Z" fill="black"/>
<path d="M173.458 212.682H163.449C162.541 212.682 161.799 211.939 161.799 211.03C161.799 210.12 162.541 209.377 163.449 209.377H173.458C174.365 209.377 175.108 210.12 175.108 211.03C175.108 211.939 174.365 212.682 173.458 212.682Z" fill="white"/>
<path d="M173.458 219.708H163.449C162.541 219.708 161.799 218.964 161.799 218.055C161.799 217.146 162.541 216.402 163.449 216.402H173.458C174.365 216.402 175.108 217.146 175.108 218.055C175.108 218.964 174.365 219.708 173.458 219.708Z" fill="white"/>
<path d="M173.458 226.733H163.449C162.542 226.733 161.799 225.989 161.799 225.08C161.799 224.171 162.542 223.428 163.449 223.428H173.458C174.366 223.428 175.108 224.171 175.108 225.08C175.108 225.989 174.366 226.733 173.458 226.733Z" fill="white"/>
<path d="M291.545 192.357C289.621 175.634 301.599 162.078 318.297 162.078H288.063H196.327C179.629 162.078 167.652 175.634 169.575 192.357H291.545Z" fill="#407BFF"/>
<g opacity="0.3">
<path d="M291.545 192.357C289.621 175.634 301.599 162.078 318.297 162.078H288.063H196.327C179.629 162.078 167.652 175.634 169.575 192.357H291.545Z" fill="white"/>
</g>
<path d="M318.297 162.078H226.56H196.327C213.024 162.078 228.119 175.634 230.042 192.357L243.874 312.639C245.798 329.362 260.893 342.919 277.589 342.919H339.094C355.791 342.919 367.768 329.362 365.845 312.639L352.012 192.357C350.089 175.634 334.994 162.078 318.297 162.078Z" fill="#407BFF"/>
<path opacity="0.7" d="M318.297 162.078H226.56H196.327C213.024 162.078 228.119 175.634 230.042 192.357L243.874 312.639C245.798 329.362 260.893 342.919 277.589 342.919H339.094C355.791 342.919 367.768 329.362 365.845 312.639L352.012 192.357C350.089 175.634 334.994 162.078 318.297 162.078Z" fill="white"/>
<path d="M304.341 312.641C306.264 329.363 294.287 342.92 277.59 342.92H307.824H399.56C416.258 342.92 428.235 329.363 426.311 312.641H304.341Z" fill="#407BFF"/>
<path opacity="0.5" d="M304.341 312.641C306.264 329.363 294.287 342.92 277.59 342.92H307.824H399.56C416.258 342.92 428.235 329.363 426.311 312.641H304.341Z" fill="white"/>
<path d="M243.067 202.822H245.936L244.869 212.1H242L243.067 202.822Z" fill="#407BFF"/>
<path d="M248.009 202.822H250.681L253.58 207.956L254.17 202.822H256.868L255.801 212.1H253.103L250.219 207.005L249.633 212.1H246.94L248.009 202.822Z" fill="#407BFF"/>
<path d="M257.861 202.822H260.853L262.171 209.498L264.997 202.822H267.903L263.396 212.1H260.294L257.861 202.822Z" fill="#407BFF"/>
<path d="M267.501 207.469C267.675 205.954 268.232 204.775 269.171 203.932C270.111 203.087 271.333 202.666 272.837 202.666C274.379 202.666 275.52 203.08 276.258 203.91C276.996 204.739 277.28 205.901 277.109 207.394C276.984 208.479 276.699 209.368 276.254 210.062C275.81 210.756 275.222 211.296 274.488 211.682C273.756 212.068 272.875 212.261 271.846 212.261C270.801 212.261 269.957 212.094 269.31 211.761C268.663 211.428 268.169 210.901 267.826 210.179C267.485 209.456 267.376 208.554 267.501 207.469ZM270.361 207.482C270.254 208.418 270.351 209.092 270.651 209.501C270.951 209.91 271.401 210.114 271.999 210.114C272.613 210.114 273.113 209.914 273.496 209.514C273.879 209.113 274.131 208.393 274.251 207.355C274.351 206.482 274.249 205.844 273.943 205.441C273.637 205.038 273.183 204.836 272.581 204.836C272.004 204.836 271.517 205.041 271.12 205.45C270.724 205.859 270.47 206.536 270.361 207.482Z" fill="#407BFF"/>
<path d="M279.289 202.822H282.158L281.091 212.1H278.222L279.289 202.822Z" fill="#407BFF"/>
<path d="M289.75 208.305L292.171 209.064C291.921 209.769 291.588 210.358 291.171 210.83C290.755 211.303 290.263 211.659 289.699 211.9C289.134 212.14 288.437 212.26 287.606 212.26C286.6 212.26 285.794 212.114 285.19 211.821C284.585 211.528 284.094 211.013 283.715 210.274C283.337 209.536 283.213 208.592 283.346 207.441C283.522 205.906 284.066 204.727 284.975 203.902C285.885 203.078 287.086 202.666 288.578 202.666C289.745 202.666 290.635 202.902 291.248 203.375C291.862 203.847 292.275 204.573 292.487 205.552L289.894 206.115C289.838 205.833 289.768 205.625 289.687 205.494C289.552 205.275 289.376 205.106 289.158 204.988C288.939 204.87 288.687 204.81 288.401 204.81C287.753 204.81 287.225 205.072 286.819 205.595C286.514 205.982 286.314 206.591 286.218 207.422C286.1 208.45 286.174 209.155 286.442 209.536C286.71 209.918 287.125 210.108 287.691 210.108C288.239 210.108 288.671 209.955 288.986 209.646C289.301 209.339 289.556 208.891 289.75 208.305Z" fill="#407BFF"/>
<path d="M294.273 202.822H301.945L301.717 204.803H296.914L296.745 206.277H301.2L300.983 208.169H296.527L296.316 209.999H301.258L301.016 212.1H293.205L294.273 202.822Z" fill="#407BFF"/>
<path d="M244.378 236.315H347.786L346.436 224.584H243.029L244.378 236.315Z" fill="#407BFF"/>
<path opacity="0.8" d="M244.378 236.312H347.786L348.888 245.896H245.48L244.378 236.312Z" fill="white"/>
<path d="M251.526 298.462H283L282.349 292.793H250.873L251.526 298.462Z" fill="#407BFF"/>
<path opacity="0.8" d="M251.525 298.463H283L283.532 303.094H252.057L251.525 298.463Z" fill="white"/>
<path opacity="0.5" d="M246.581 255.48H349.989L348.887 245.896H245.479L246.581 255.48Z" fill="white"/>
<path opacity="0.8" d="M246.581 255.482H349.989L351.092 265.065H247.684L246.581 255.482Z" fill="white"/>
<path opacity="0.5" d="M248.786 274.65H352.194L351.092 265.066H247.684L248.786 274.65Z" fill="white"/>
<path opacity="0.8" d="M248.786 274.645H352.194L353.296 284.228H249.888L248.786 274.645Z" fill="white"/>
</g>
<defs>
<clipPath id="clip0_317_22108">
<rect width="454" height="386" fill="white" transform="matrix(-1 0 0 1 454 0)"/>
</clipPath>
</defs>
</svg>
